<svg xmlns="http://www.w3.org/2000/svg" viewBox="0 0 24 24" fill="none" shape-rendering="geometricPrecision"><g data-keyline="16x20" data-shape="portrait" transform="matrix(1.0357138 0 0 1.0277785 -0.4285653 -0.333342)"><path d="M7.5479782 2.2730716L12.958606 2.2730716C13.820225176564971 2.2610653709389537 14.648818776179898 2.6041454353239044 15.2497572 3.221725199999999L18.7782748 6.7502428C19.395854564676092 7.3511812238201015 19.738934629061042 8.179774823435027 19.7269284 9.041394L19.7269284 18.4520218C19.838004900210986 19.350063656244668 19.528866439657595 20.24916556486967 18.88901600226363 20.88901600226363C18.24916556486967 21.52886643965759 17.350063656244668 21.838004900210986 16.452021800000004 21.726928400000002L7.5479782 21.7269284C6.649936343755335 21.838004900210986 5.750834435130333 21.528866439657595 5.110983997736371 20.889016002263634C4.471133560342409 20.24916556486967 4.161995099789017 19.35006365624467 4.273071600000001 18.452021800000004L4.2730716 5.5479782C4.161995099789015 4.649936343755334 4.471133560342407 3.7508344351303307 5.110983997736368 3.110983997736369C5.75083443513033 2.471133560342407 6.649936343755333 2.161995099789015 7.547978199999999 2.2730716zM7.5 3.7269284C7.465602570359516 3.7269283994903346 7.43124851798449 3.724486931650307 7.3971968 3.7196224000000004C6.935171605681014 3.6536188038930923 6.469033999060529 3.808998007792569 6.1390160034265495 4.1390160034265495C5.808998007792569 4.46903399906053 5.653618803893092 4.935171605681015 5.7196224 5.3971968C5.724486931650307 5.43124851798449 5.726928399490335 5.465602570359516 5.7269284 5.5L5.7269284 18.499999999999996C5.726928399490335 18.53439742964048 5.724486931650307 18.568751482015507 5.7196224 18.6028032C5.653618803893092 19.064828394318987 5.808998007792569 19.530966000939472 6.139016003426549 19.860983996573452C6.469033999060529 20.191001992207433 6.935171605681015 20.34638119610691 7.3971968 20.2803776C7.43124851798449 20.275513068349692 7.465602570359516 20.273071600509667 7.5 20.2730716L16.499999999999996 20.2730716C16.53439742964048 20.273071600509667 16.568751482015507 20.275513068349692 16.602803200000004 20.280377600000005C17.06482839431899 20.346381196106915 17.530966000939475 20.191001992207436 17.860983996573456 19.860983996573456C18.191001992207436 19.530966000939475 18.346381196106915 19.06482839431899 18.2803776 18.602803199999997C18.275513068349692 18.568751482015507 18.273071600509667 18.53439742964048 18.2730716 18.5L18.2730716 9.035999999999998C18.273071574564515 9.032147450938542 18.273102175531427 9.028294962543107 18.2731634 9.0244429C18.280547795836156 8.560030233295658 18.09556290814569 8.113236074826302 17.7620549 7.7899621C17.759344006170483 7.787334398921681 17.756653624531168 7.784685618544751 17.753984 7.782016L14.217984 4.246016C14.215314381455247 4.24334637546883 14.212665601078319 4.240655993829515 14.2100379 4.2379451C13.886763942283629 3.904437055089306 13.439969781611737 3.7194521302940515 12.9755571 3.7268364999999997C12.971705037721904 3.7268977578034868 12.967852549326453 3.7269283921047855 12.964 3.7269284L7.5 3.7269284z" fill="black"/><path d="M9.2730716 17.5L9.2730716 13.8156321C9.238395200213471 13.372509333245782 9.313918255660615 12.927692005346003 9.492906099999999 12.520846100000002C9.299569804813736 12.332614546536636 9.226404958853838 12.052778628436853 9.302869231826756 11.794006033840159C9.379333504799675 11.535233439243463 9.592844228385363 11.340106796631543 9.8574376 11.287188100000002L11.2260222 11.0134711C11.360796086877599 10.975393010961103 11.498334539449978 10.947884364213746 11.6373864 10.9311954L13.6584105 10.5267938C13.677161172265038 10.522892221620506 13.695954809594257 10.519200058300965 13.7147879 10.515718L14.8574376 10.2871881C15.143298234730016 10.230015989572136 15.435664122642153 10.349149391593455 15.60015515826015 10.589831031733167C15.764646193878148 10.83051267187288 15.769441613949793 11.146182727212567 15.6123373 11.391749800000001C15.738887202000134 11.6735383439505 15.778774996497486 11.986596777203934 15.726928399999998 12.2911154L15.7269284 16.5C15.7269284 16.901471469538897 15.4014714695389 17.2269284 15 17.2269284C14.5985285304611 17.2269284 14.2730716 16.901471469538897 14.2730716 16.5L14.2730716 12.22C14.273071587623072 12.163869457530632 14.279572771133289 12.107927789528771 14.2924452 12.0532932C14.299775628179976 12.02195286720665 14.292098331590084 11.988986177031537 14.27167593099116 11.964108934606445C14.251253530392235 11.939231692181352 14.220413912280458 11.925279577691038 14.188246 11.9263645C14.182493895308825 11.926558494846853 14.176739689546915 11.92668417037562 14.1709846 11.9267415C14.109420948708898 11.927386906307492 14.04801535006584 11.933107790820213 13.987392 11.943846L11.8930399 12.3627164L11.5774236 12.4258397C11.025524315796488 12.604057697273799 10.670956277561892 13.141107910303488 10.7238938 13.718647600000002C10.725915804369219 13.740707275709314 10.726928394474447 13.762847848996786 10.7269284 13.785L10.7269284 17.5C10.7269284 17.901471469538897 10.4014714695389 18.2269284 10 18.2269284C9.5985285304611 18.2269284 9.2730716 17.901471469538897 9.2730716 17.5zM14.7269284 3L14.7269284 6.25C14.726928399490335 6.284397429640484 14.724486931650308 6.31875148201551 14.7196224 6.3528032C14.683127304300152 6.608268913317906 14.769040498004696 6.866008484210269 14.951516006897213 7.048483993102788C15.133991515789733 7.230959501995307 15.391731086682096 7.31687269569985 15.647196800000001 7.2803776C15.68124851798449 7.275513068349693 15.715602570359515 7.273071600509665 15.75 7.2730716L19 7.2730716C19.401471469538897 7.2730716 19.7269284 7.598528530461101 19.7269284 8C19.7269284 8.4014714695389 19.401471469538897 8.7269284 19 8.7269284L15.7966806 8.7269284C15.10565474308846 8.808152897338429 14.415476954899276 8.568508973748292 13.923483990575493 8.076516009424507C13.431491026251708 7.584523045100724 13.19184710266157 6.89434525691154 13.2730716 6.2033194L13.2730716 3C13.2730716 2.598528530461101 13.5985285304611 2.2730715999999997 14 2.2730715999999997C14.4014714695389 2.2730715999999997 14.7269284 2.5985285304611008 14.7269284 3z" fill="black"/><path fill="black" d="M10.1 17.5C10.1 18.107513 9.607513 18.6 9 18.6C8.392487 18.6 7.9 18.107513 7.9 17.5C7.9 16.892487 8.392487 16.4 9 16.4C9.607513 16.4 10.1 16.892487 10.1 17.5z"/><path fill="black" d="M15.1 16.5C15.1 17.107513 14.607513 17.6 14 17.6C13.392487 17.6 12.9 17.107513 12.9 16.5C12.9 15.892487 13.392487 15.4 14 15.4C14.607513 15.4 15.1 15.892487 15.1 16.5z"/></g></svg>
