<svg xmlns="http://www.w3.org/2000/svg" viewBox="0 0 24 24" fill="none" shape-rendering="geometricPrecision"><g data-keyline="20x16" data-shape="landscape" transform="matrix(1.3214266 0 0 1.2083314 -3.8571196 -2.4999771)"><path d="M5.5666581 5.7035475L11.4064645 10.7097142L11.4064645 6.2762181C11.361573083000124 5.951052890602696 11.550218062265124 5.638791171644651 11.8589349 5.5272494C11.954898834758426 5.492576859219488 12.058180766197795 5.483229169988966 12.1588105 5.500108700000001C12.311992721730231 5.525771172344099 12.454015027965452 5.596613436841244 12.5666581 5.703547500000001L19.2842939 11.4622324C19.433855732209597 11.580406674699537 19.528567118831017 11.754618024111645 19.546425 11.9443942C19.549905640063148 11.98138306535793 19.549905640063148 12.018617034642071 19.546425 12.055605900000002C19.528567092430887 12.245382040069574 19.43385570836344 12.419593348652626 19.2842939 12.537767599999999L12.5666596 18.2964512C12.453890523740057 18.403505423091577 12.311679282568436 18.47438418883315 12.1583086 18.4999753C12.057834517145956 18.516740156477773 11.954736652800296 18.507364555256117 11.8589349 18.4727506C11.550218062265124 18.361208828355352 11.361573083000122 18.048947109397307 11.4064645 17.723781900000002L11.4064645 13.2902858L5.5666596 18.2964512C5.453890523740057 18.403505423091577 5.311679282568435 18.474384188833152 5.158308599999999 18.4999753C5.057834517145956 18.516740156477773 4.954736652800297 18.507364555256117 4.8589349 18.4727506C4.550218062265123 18.361208828355352 4.361573083000122 18.048947109397307 4.4064645 17.723781900000002L4.4064645 6.2762181C4.361573083000123 5.951052890602695 4.550218062265123 5.63879117164465 4.8589348999999995 5.5272494C4.954898834758427 5.492576859219488 5.058180766197796 5.483229169988966 5.1588105 5.500108700000001C5.311992721730231 5.525771172344098 5.454015027965451 5.596613436841243 5.566658099999999 5.7035475zM5.5935355 7.2901349L5.5935355 16.7098651L11.0876994 12L5.5935355 7.2901349zM12.5935355 7.2901349L12.5935355 16.7098651L18.0876994 12L12.5935355 7.2901349z" fill="black"/></g></svg>
