<svg xmlns="http://www.w3.org/2000/svg" viewBox="0 0 24 24" fill="none" shape-rendering="geometricPrecision"><g data-keyline="20x18" data-shape="special" transform="matrix(1.0000015 0 0 0.990397 -0.0000183 1.0263782)"><g><path d="M3.25 4.98258L20.75 4.98258C21.133534870286763 4.982579999999999 21.50136115080822 5.134938633989237 21.77256125840949 5.406138741590509C22.043761366010763 5.6773388491917816 22.19612 6.045165129713238 22.19612 6.4287L22.19612 18.91C22.19612 19.293534870286763 22.043761366010763 19.66136115080822 21.77256125840949 19.93256125840949C21.50136115080822 20.203761366010763 21.133534870286763 20.35612 20.75 20.35612L3.25 20.35612C2.8664651297132386 20.35612 2.498638849191782 20.203761366010763 2.22743874159051 19.93256125840949C1.9562386339892377 19.66136115080822 1.80388 19.293534870286763 1.80388 18.91L1.80388 6.4287C1.8038799999999997 6.045165129713238 1.9562386339892377 5.6773388491917816 2.2274387415905097 5.406138741590509C2.4986388491917815 5.134938633989237 2.866465129713238 4.982579999999999 3.2499999999999996 4.982579999999999zM3.69612 18.46388L20.30388 18.46388L20.30388 6.87482L3.69612 6.87482z" fill="black"/><path d="M6.5237133 5.5161392L7.9216047 2.6337966C8.155750369768384 2.1156958251190074 8.677818072701431 1.7885891698503302 9.2461655 1.8038799999999997L14.7538345 1.80388C15.322181927298569 1.78858916985033 15.844249630231616 2.1156958251190074 16.0783953 2.6337965999999997L17.4762867 5.5161392C17.70430342364294 5.986291862143781 17.508013462143783 6.552269976357058 17.0378608 6.7802866999999996C16.56770813785622 7.008303423642941 16.001730023642942 6.812013462143781 15.7737133 6.341860800000001L14.4905701 3.69612L9.5094299 3.69612L8.2262867 6.3418608C7.998269972720761 6.812013455546561 7.432291863090318 7.008303411724601 6.962139204859777 6.780286689979521C6.491986546629236 6.55226996823444 6.295696583789078 5.9862918609145215 6.523713300000001 5.5161392000000005z" fill="black"/><path d="M16.34612 12.6694C16.34612 15.087921 14.400296 17.04852 12 17.04852C9.599704 17.04852 7.65388 15.087921 7.65388 12.6694C7.65388 10.250879 9.599704 8.29028 12 8.29028C14.400296 8.29028 16.34612 10.250879 16.34612 12.6694zM14.45388 12.6694C14.45388 11.295934 13.355241 10.18252 12 10.18252C10.644759 10.18252 9.54612 11.295934 9.54612 12.6694C9.54612 14.042866 10.644759 15.15628 12 15.15628C13.355241 15.15628 14.45388 14.042866 14.45388 12.6694z" fill="black"/></g></g></svg>
