<svg xmlns="http://www.w3.org/2000/svg" viewBox="0 0 24 24" fill="none" shape-rendering="geometricPrecision"><g data-keyline="18x18" data-shape="square" transform="matrix(0.916667 0 0 0.916667 0.9999958 0.9999958)"><path d="M9.75 2.1818185L14.25 2.1818185C14.665907592861311 2.1818185000000003 15.064780693522085 2.347037147959502 15.358871772781292 2.641128227218708C15.652962852040499 2.935219306477915 15.8181815 3.3340924071386895 15.8181815 3.7500000000000004L15.8181815 7.25C15.8181815 8.11608272741678 15.116082727416778 8.818181500000001 14.25 8.818181500000001L9.75 8.8181815C8.883917272583222 8.818181500000001 8.1818185 8.11608272741678 8.1818185 7.250000000000001L8.1818185 3.75C8.1818185 2.883917272583222 8.883917272583222 2.1818185000000003 9.75 2.1818185000000003zM9.8181815 3.8181815L9.8181815 7.1818185L14.1818185 7.1818185L14.1818185 3.8181815L9.8181815 3.8181815z" fill="black"/><path d="M3.75 15.1818185L8.25 15.1818185C9.116082727416778 15.1818185 9.8181815 15.883917272583222 9.8181815 16.75L9.8181815 20.25C9.8181815 20.66590759286131 9.652962852040499 21.064780693522085 9.358871772781292 21.358871772781292C9.064780693522085 21.6529628520405 8.665907592861311 21.8181815 8.25 21.8181815L3.75 21.8181815C3.334092407138689 21.8181815 2.9352193064779146 21.6529628520405 2.641128227218708 21.358871772781292C2.347037147959501 21.064780693522085 2.1818184999999994 20.66590759286131 2.1818185000000003 20.25L2.1818185 16.75C2.1818185000000003 15.883917272583222 2.8839172725832216 15.1818185 3.7499999999999996 15.1818185zM3.8181815 16.8181815L3.8181815 20.1818185L8.1818185 20.1818185L8.1818185 16.8181815L3.8181815 16.8181815z" fill="black"/><path d="M15.75 15.1818185L20.25 15.1818185C20.66590759286131 15.1818185 21.064780693522085 15.347037147959501 21.358871772781292 15.641128227218708C21.6529628520405 15.935219306477913 21.8181815 16.334092407138687 21.8181815 16.75L21.8181815 20.25C21.8181815 20.66590759286131 21.6529628520405 21.064780693522085 21.358871772781292 21.358871772781292C21.064780693522085 21.6529628520405 20.66590759286131 21.8181815 20.249999999999996 21.8181815L15.75 21.8181815C15.334092407138689 21.8181815 14.935219306477915 21.6529628520405 14.641128227218708 21.358871772781292C14.347037147959501 21.064780693522085 14.1818185 20.66590759286131 14.1818185 20.25L14.1818185 16.75C14.1818185 15.883917272583222 14.883917272583222 15.1818185 15.75 15.1818185zM15.8181815 16.8181815L15.8181815 20.1818185L20.1818185 20.1818185L20.1818185 16.8181815L15.8181815 16.8181815z" fill="black"/><path d="M 12.8181815 8 L 12.8181815 11.1818185 L 18 11.1818185 A 0.8181815 0.8181815 0 0 1 18.8181815 12 L 18.8181815 16 A 0.8181815 0.8181815 0 0 1 17.1818185 16 L 17.1818185 12.8181815 L 6.8181815 12.8181815 L 6.8181815 16 A 0.8181815 0.8181815 0 0 1 5.1818185 16 L 5.1818185 12 A 0.8181815 0.8181815 0 0 1 6 11.1818185 L 11.1818185 11.1818185 L 11.1818185 8 A 0.8181815 0.8181815 0 0 1 12.8181815 8 Z" fill="black"/></g></svg>
